<svg width="32" height="32" viewBox="0 0 32 32" fill="none" xmlns="http://www.w3.org/2000/svg">
<path d="M15.6566 5.8931C18.1807 3.36897 22.2731 3.36897 24.7973 5.8931C27.3214 8.41723 27.3214 12.5097 24.7973 15.0338L17.2538 22.5773C15.5834 24.2478 12.875 24.2478 11.2046 22.5773C9.53417 20.9069 9.53417 18.1986 11.2046 16.5281L16.9706 10.7622C17.3611 10.3716 17.9943 10.3716 18.3848 10.7622C18.7753 11.1527 18.7753 11.7858 18.3848 12.1764L12.6188 17.9423C11.7294 18.8317 11.7294 20.2737 12.6188 21.1631C13.5082 22.0525 14.9502 22.0525 15.8396 21.1631L23.3831 13.6196C25.1262 11.8765 25.1262 9.0504 23.3831 7.30731C21.64 5.56423 18.8139 5.56423 17.0708 7.30731L9.38921 14.9889C6.87026 17.5078 6.87027 21.5919 9.38921 24.1108C11.9081 26.6297 15.9922 26.6297 18.5111 24.1108L24.7879 17.834C25.1784 17.4435 25.8116 17.4435 26.2021 17.834C26.5926 18.2245 26.5926 18.8577 26.2021 19.2482L19.9253 25.525C16.6253 28.825 11.275 28.825 7.97499 25.525C4.675 22.225 4.675 16.8747 7.97499 13.5747L15.6566 5.8931Z" fill="#808080"/>
</svg>
