<svg width="20" height="20" viewBox="0 0 20 20" fill="none" xmlns="http://www.w3.org/2000/svg">
<path fill-rule="evenodd" clip-rule="evenodd" d="M9.28271 0.449779C10.0224 0.548099 10.8702 0.804821 11.5346 1.35853C14.5883 3.90329 15.6324 4.95139 18.668 8.99896C19.018 9.46561 19.2722 10.1441 19.4133 10.7704C19.552 11.3855 19.6233 12.1329 19.4505 12.7315C18.2668 16.8336 14.485 19.835 10 19.835C4.56832 19.835 0.165039 15.4318 0.165039 10C0.165039 5.51505 3.16644 1.73325 7.26854 0.549538C7.79899 0.396469 8.54359 0.35153 9.28271 0.449779ZM8.33504 2.07081C8.55297 2.06219 8.80167 2.07052 9.06266 2.10522C9.62457 2.17991 10.1299 2.3618 10.4655 2.64145C13.4117 5.09667 14.3677 6.04853 17.332 10.001C17.4853 10.2053 17.6698 10.6299 17.7842 11.1376C17.8274 11.3293 17.8548 11.5071 17.8693 11.665H16.5C11.9906 11.665 8.33504 8.00938 8.33504 3.49998V2.07081ZM6.66504 2.5447C3.81773 3.82033 1.83504 6.6795 1.83504 10C1.83504 14.5094 5.49063 18.165 10 18.165C13.3206 18.165 16.1798 16.1823 17.4554 13.335H16.5C11.0683 13.335 6.66504 8.9317 6.66504 3.49998V2.5447Z" fill="#808080"/>
</svg>
